<mxfile host="app.diagrams.net" modified="2024-08-14T14:32:35.490Z" agent="Mozilla/5.0 (Windows NT 10.0; Win64; x64) AppleWebKit/537.36 (KHTML, like Gecko) Chrome/127.0.0.0 Safari/537.36" version="24.6.4" etag="RiU7DdD9-2Ljbx3HKPek" type="github">
  <diagram name="Page-1" id="rJ6nqWbIh31rbYRror40">
    <mxGraphModel>
      <root>
        <mxCell id="0" />
        <mxCell id="1" parent="0" />
      </root>
    </mxGraphModel>
  </diagram>
</mxfile>
